<svg width="100%" style="" viewBox="0 0 2261 2737" fill="none" xmlns="http://www.w3.org/2000/svg">
<path d="M271.838 2505.08C271.838 2526.04 267.591 2545.01 259.096 2562C250.601 2578.71 237.576 2592.01 220.021 2601.92C202.748 2611.55 180.662 2616.36 153.762 2616.36C116.102 2616.36 87.362 2606.17 67.5411 2585.78C48.0034 2565.11 38.2345 2537.93 38.2345 2504.24V2308.86H76.4605V2505.51C76.4605 2530.14 82.9731 2549.26 95.9983 2562.85C109.307 2576.44 129.269 2583.24 155.886 2583.24C174.291 2583.24 189.157 2579.98 200.483 2573.47C212.092 2566.67 220.587 2557.47 225.967 2545.86C231.347 2533.97 234.037 2520.38 234.037 2505.08V2308.86H271.838V2505.08ZM460.61 2612.12H422.384V2342.41H327.668V2308.86H554.901V2342.41H460.61V2612.12ZM869.684 2460.06C869.684 2483.56 866.71 2504.94 860.764 2524.2C854.818 2543.17 845.898 2559.59 834.006 2573.47C822.397 2587.34 807.814 2597.96 790.258 2605.32C772.986 2612.68 752.882 2616.36 729.946 2616.36C706.161 2616.36 685.491 2612.68 667.935 2605.32C650.379 2597.68 635.797 2587.06 624.187 2573.47C612.578 2559.59 603.942 2543.03 598.279 2523.77C592.616 2504.52 589.784 2483.14 589.784 2459.64C589.784 2428.49 594.881 2401.31 605.074 2378.09C615.268 2354.87 630.7 2336.75 651.37 2323.72C672.324 2310.7 698.657 2304.19 730.371 2304.19C760.669 2304.19 786.153 2310.7 806.823 2323.72C827.493 2336.47 843.067 2354.59 853.544 2378.09C864.304 2401.31 869.684 2428.63 869.684 2460.06ZM630.134 2460.06C630.134 2485.55 633.673 2507.49 640.752 2525.9C647.831 2544.3 658.732 2558.46 673.457 2568.37C688.464 2578.28 707.294 2583.24 729.946 2583.24C752.882 2583.24 771.57 2578.28 786.011 2568.37C800.735 2558.46 811.637 2544.3 818.716 2525.9C825.794 2507.49 829.334 2485.55 829.334 2460.06C829.334 2421.84 821.406 2391.96 805.549 2370.44C789.692 2348.64 764.633 2337.74 730.371 2337.74C707.435 2337.74 688.464 2342.69 673.457 2352.61C658.732 2362.23 647.831 2376.25 640.752 2394.65C633.673 2412.78 630.134 2434.58 630.134 2460.06ZM1190.04 2612.12H1145.44L983.194 2360.25H981.495C981.778 2365.35 982.061 2371.01 982.344 2377.24C982.911 2383.47 983.335 2390.26 983.618 2397.63C983.902 2404.71 984.185 2412.07 984.468 2419.71C984.751 2427.36 984.893 2435 984.893 2442.65V2612.12H949.64V2308.86H993.812L1155.64 2559.88H1157.33C1157.05 2556.48 1156.77 2551.81 1156.49 2545.86C1156.2 2539.63 1155.92 2532.83 1155.64 2525.47C1155.35 2517.83 1155.07 2510.04 1154.79 2502.11C1154.5 2494.18 1154.36 2486.82 1154.36 2480.03V2308.86H1190.04V2612.12ZM1549.69 2460.06C1549.69 2483.56 1546.72 2504.94 1540.77 2524.2C1534.83 2543.17 1525.91 2559.59 1514.01 2573.47C1502.41 2587.34 1487.82 2597.96 1470.27 2605.32C1452.99 2612.68 1432.89 2616.36 1409.95 2616.36C1386.17 2616.36 1365.5 2612.68 1347.94 2605.32C1330.39 2597.68 1315.8 2587.06 1304.19 2573.47C1292.58 2559.59 1283.95 2543.03 1278.28 2523.77C1272.62 2504.52 1269.79 2483.14 1269.79 2459.64C1269.79 2428.49 1274.89 2401.31 1285.08 2378.09C1295.27 2354.87 1310.71 2336.75 1331.38 2323.72C1352.33 2310.7 1378.66 2304.19 1410.38 2304.19C1440.68 2304.19 1466.16 2310.7 1486.83 2323.72C1507.5 2336.47 1523.08 2354.59 1533.55 2378.09C1544.31 2401.31 1549.69 2428.63 1549.69 2460.06ZM1310.14 2460.06C1310.14 2485.55 1313.68 2507.49 1320.76 2525.9C1327.84 2544.3 1338.74 2558.46 1353.46 2568.37C1368.47 2578.28 1387.3 2583.24 1409.95 2583.24C1432.89 2583.24 1451.58 2578.28 1466.02 2568.37C1480.74 2558.46 1491.65 2544.3 1498.72 2525.9C1505.8 2507.49 1509.34 2485.55 1509.34 2460.06C1509.34 2421.84 1501.41 2391.96 1485.56 2370.44C1469.7 2348.64 1444.64 2337.74 1410.38 2337.74C1387.44 2337.74 1368.47 2342.69 1353.46 2352.61C1338.74 2362.23 1327.84 2376.25 1320.76 2394.65C1313.68 2412.78 1310.14 2434.58 1310.14 2460.06ZM1763.43 2612.12L1663.62 2346.23H1661.92C1662.49 2351.9 1662.91 2359.12 1663.2 2367.9C1663.76 2376.67 1664.19 2386.3 1664.47 2396.78C1664.75 2406.97 1664.89 2417.45 1664.89 2428.21V2612.12H1629.64V2308.86H1686.13L1779.57 2557.33H1781.27L1876.41 2308.86H1932.48V2612.12H1894.68V2425.66C1894.68 2415.75 1894.82 2405.98 1895.1 2396.35C1895.38 2386.44 1895.81 2377.24 1896.37 2368.75C1896.94 2359.97 1897.37 2352.61 1897.65 2346.66H1895.95L1794.86 2612.12H1763.43ZM2218 2612.12L2181.47 2518.25H2061.27L2025.17 2612.12H1986.52L2105.02 2307.58H2139.42L2257.5 2612.12H2218ZM2136.02 2392.53C2135.17 2390.26 2133.76 2386.16 2131.78 2380.21C2129.79 2374.27 2127.81 2368.18 2125.83 2361.95C2124.13 2355.44 2122.71 2350.48 2121.58 2347.08C2120.17 2352.75 2118.61 2358.55 2116.91 2364.5C2115.49 2370.16 2113.94 2375.4 2112.24 2380.21C2110.82 2385.03 2109.55 2389.13 2108.42 2392.53L2074.01 2484.27H2170L2136.02 2392.53Z" fill="#383838"/>
<path d="M687.396 1932.21L228.004 1136.53L687.396 340.837H1606.18L2065.57 1136.53L1606.18 1932.21H687.396Z" stroke="#383838" stroke-width="9.91045"/>
<path d="M1603.77 1928.1L1772.67 970.23" stroke="#383838" stroke-width="6.37101"/>
<path d="M1603.84 1928.77L1848.98 1013.88" stroke="#383838" stroke-width="6.37101"/>
<path d="M1603.92 1929.19L1921.57 1056.46" stroke="#383838" stroke-width="6.37101"/>
<path d="M1604.02 1928.78L1991.74 1097.32" stroke="#383838" stroke-width="6.37101"/>
<path d="M1606.44 1930.03L1694.47 923.891" stroke="#383838" stroke-width="6.37101"/>
<path d="M1602.92 1933.6V873.189" stroke="#383838" stroke-width="6.37101"/>
<path d="M2062.71 1138.14L1317.62 512.943" stroke="#383838" stroke-width="6.37101"/>
<path d="M2063.31 1138.42L1393.56 468.681" stroke="#383838" stroke-width="6.37101"/>
<path d="M2063.73 1138.57L1466.75 427.104" stroke="#383838" stroke-width="6.37101"/>
<path d="M2063.42 1138.26L1537.22 386.749" stroke="#383838" stroke-width="6.37101"/>
<path d="M2065.72 1136.81L1238.39 557.503" stroke="#383838" stroke-width="6.37101"/>
<path d="M2063.53 1139.19L1145.19 608.988" stroke="#383838" stroke-width="6.37101"/>
<path d="M1605.45 342.3L687.665 676.349" stroke="#383838" stroke-width="6.37101"/>
<path d="M1605.93 341.691L688.893 587.435" stroke="#383838" stroke-width="6.37101"/>
<path d="M1606.22 341.082L688.677 502.869" stroke="#383838" stroke-width="6.37101"/>
<path d="M1605.74 340.154L688.466 420.405" stroke="#383838" stroke-width="6.37101"/>
<path d="M1605.79 338.935L687.936 766.935" stroke="#383838" stroke-width="6.37101"/>
<path d="M1606.71 341.899L688.373 872.106" stroke="#383838" stroke-width="6.37101"/>
<path d="M686.756 345.907L517.86 1303.77" stroke="#383838" stroke-width="6.37101"/>
<path d="M686.698 345.239L441.555 1260.12" stroke="#383838" stroke-width="6.37101"/>
<path d="M686.613 344.802L368.961 1217.54" stroke="#383838" stroke-width="6.37101"/>
<path d="M686.504 345.217L298.783 1176.69" stroke="#383838" stroke-width="6.37101"/>
<path d="M683.81 347.138L596.339 1346.94" stroke="#383838" stroke-width="6.37101" stroke-linecap="round"/>
<path d="M687.609 344.656V1398.44" stroke="#383838" stroke-width="6.37101"/>
<path d="M228.505 1135.31L973.591 1760.52" stroke="#383838" stroke-width="6.37101"/>
<path d="M227.889 1135.04L897.629 1804.79" stroke="#383838" stroke-width="6.37101"/>
<path d="M227.472 1134.88L824.461 1846.34" stroke="#383838" stroke-width="6.37101"/>
<path d="M227.783 1135.2L753.997 1886.71" stroke="#383838" stroke-width="6.37101"/>
<path d="M225.476 1136.65L1052.81 1715.97" stroke="#383838" stroke-width="6.37101"/>
<path d="M227.671 1134.25L1146.02 1664.46" stroke="#383838" stroke-width="6.37101"/>
<path d="M687.236 1925.7L1601.22 1593.04" stroke="#383838" stroke-width="6.37101"/>
<path d="M688.101 1930.34L1602.99 1685.2" stroke="#383838" stroke-width="6.37101"/>
<path d="M687.767 1930.63L1602.41 1769.36" stroke="#383838" stroke-width="6.37101"/>
<path d="M688.186 1930.51L1602.11 1850.55" stroke="#383838" stroke-width="6.37101"/>
<path d="M688.299 1933.23L1603.66 1506.38" stroke="#383838" stroke-width="6.37101"/>
<path d="M687.316 1930.16L1605.66 1399.94" stroke="#383838" stroke-width="6.37101"/>
<mask id="logoUtonoma3_mask0-392-453" style="mask-type:alpha" maskUnits="userSpaceOnUse" x="687" y="665" width="914" height="955">
<path d="M905.96 858.553L905.035 741.512L840.994 742.019L841.937 861.266L842.703 958.432C844.069 991.547 857.525 1054.9 869.093 1084.1C882.612 1118.23 896.158 1155.66 929.615 1197.36C963.95 1240.15 985.49 1255.58 1001.93 1266.36C1021.91 1279.45 1030.8 1286 1072.9 1303.34C1114.99 1320.67 1133.75 1322.73 1156.97 1322.55C1183.47 1322.34 1202.83 1319.34 1227.56 1313.16C1259.52 1305.18 1273.82 1297.34 1287.02 1291.71C1297.59 1287.21 1319.63 1272.31 1328.78 1265.98C1312.4 1289.3 1276.77 1324.68 1249.86 1340.59C1215.79 1360.73 1202.59 1366.36 1165.14 1378.8C1127.7 1391.24 1087.96 1392.66 1079.12 1392.73C1064.77 1392.84 1023.34 1390.48 1006.19 1385.58C987.373 1380.21 943.385 1364.36 916.43 1345.43C885.339 1323.59 856.607 1292.9 841.876 1273.14C829.6 1256.67 821.803 1248.29 799.352 1201.7C780.267 1162.1 776.365 1150.92 766.677 1119.14C757.609 1089.4 756.461 1083.89 755.182 1061.82L753.351 829.943L752.114 673.154L688.073 673.659L691.612 1121.94C692.876 1142.18 698.769 1189.25 703.333 1207.98C708.703 1230.02 719.342 1277.42 729.479 1302.74C739.617 1328.05 751.467 1356.79 762.083 1376.46C772.169 1395.15 792.349 1433.64 812.415 1457.78C831.411 1480.63 860.312 1510.4 872.536 1520.24C897.73 1541.03 962.718 1586 1021.13 1599.68C1094.14 1616.77 1107.4 1617.77 1143.85 1618.58C1178.14 1619.35 1281.37 1605.61 1331.27 1581.77C1352.03 1571.86 1380.07 1558.84 1406.03 1540.32C1446.66 1511.36 1481.56 1475.74 1504.62 1441.27C1520.66 1417.3 1536.25 1391.33 1549.23 1357C1565.23 1320.43 1573.86 1292.46 1577.35 1281.69C1583.82 1261.76 1594.43 1206.47 1596.41 1177.74C1598.39 1149.02 1597.41 1164.48 1599.35 1131.34L1597.84 939.219L1595.69 666.494L1532.74 666.991L1536.42 1131.84C1534.44 1160.19 1528.75 1222.66 1521.85 1245.69C1513.25 1274.47 1514.42 1282.19 1500.35 1317.63C1486.26 1353.08 1464.49 1391.9 1447 1414.12C1429.5 1436.34 1388.99 1479.72 1352.71 1499.88C1316.43 1520.06 1274.6 1536.95 1236.03 1546.08C1197.45 1555.23 1189.71 1554.18 1163.22 1555.49C1136.73 1556.81 1090.32 1551.64 1060.45 1545.26C1039.68 1540.81 1016.2 1534.57 986.254 1518.25C969.994 1509.91 938.567 1492.11 923.004 1478.99L921.862 1478.02C906.457 1465.04 886.649 1448.33 864.023 1420.92C835.036 1385.82 827.141 1364.91 821.541 1355.01C817.063 1347.1 815.188 1342.92 814.812 1341.82C824.087 1350.94 845.522 1371.39 857.074 1380.13C871.517 1391.06 901.494 1411.8 909.249 1415.05C917.004 1418.31 944.721 1432.44 973.5 1441.04C1002.28 1449.65 1008.9 1449.59 1031.02 1453.84L1031.81 1453.93C1038.91 1454.72 1059.08 1456.93 1075.21 1456.8C1096.19 1456.65 1119.37 1455.36 1140.31 1450.77C1161.26 1446.2 1187.7 1438.25 1206.42 1432.58C1225.15 1426.91 1257.04 1410.1 1261.44 1407.85C1265.84 1405.61 1302.14 1383.21 1320.74 1366.53C1339.38 1349.82 1376.63 1313.09 1392.97 1284.25C1398.42 1275 1410.18 1254.3 1413.64 1245.44C1417.98 1234.36 1430.75 1208.86 1435.29 1190.06C1438.49 1176.78 1442.81 1164.6 1445.97 1143.59L1446 1143.34C1448.43 1125.64 1452.23 1098.12 1451.98 1066.25L1449.79 789.109L1449.39 739.422L1386.46 739.919L1386.85 789.606L1387.42 1001.61C1387.61 1024.8 1385.54 1042.48 1375.92 1082.31C1366.29 1122.14 1335.22 1186.21 1288.64 1216.61C1280.95 1222.19 1260.96 1234.94 1242.46 1241.27C1227.41 1246.91 1190.47 1258.24 1163.09 1258.46C1128.86 1258.73 1100.06 1247.91 1070.14 1233.79C1040.21 1219.68 1019.09 1201.07 1001.28 1183.54C989.763 1170.02 966.501 1142.08 965.59 1138.55C977.055 1145.46 1002.46 1159.13 1011.05 1162.49C1022.13 1166.82 1019.91 1165.73 1038.72 1171.1C1057.54 1176.47 1069.68 1176.38 1098.4 1177.26C1121.59 1177.07 1138.8 1175.61 1159.08 1170.15C1171.56 1166.01 1201.35 1153.92 1220.66 1138.75C1244.81 1119.79 1262.33 1100.88 1274.32 1080.9C1286.3 1060.93 1300.43 1032.11 1303.66 1021.05C1306.88 1009.98 1316.58 980.086 1318.68 965.716C1320.79 953.92 1329.33 915.942 1330.18 883.913L1329.71 824.288L1265.67 824.794L1265.94 859.023C1266.36 912.021 1261.13 949.606 1240.61 1007.19C1203.76 1095.82 1142.1 1117.28 1100.11 1114.3C1006.27 1116.15 959.336 1045.85 943.617 1012.85C927.897 979.843 919.968 954.509 913.037 915.916C908.445 890.34 906.151 882.844 905.96 858.553Z" fill="black" stroke="black" stroke-width="1.41578"/>
</mask>
<g mask="url(#logoUtonoma3_mask0-392-453)">
<path fill-rule="evenodd" clip-rule="evenodd" d="M1146.09 1666.04H686.665V1398.46H686.91L686.911 870.725L1146.09 605.62L1605.27 870.725V1398.46H1605.51V1666.04H1146.09Z" fill="#383838"/>
<path fill-rule="evenodd" clip-rule="evenodd" d="M1146.09 1666.04H686.665V1398.46H686.91L686.911 870.725L1146.09 605.62L1605.27 870.725V1398.46H1605.51V1666.04H1146.09Z" fill="#383838"/>
</g>
</svg>