<svg width="68" height="68" viewBox="0 0 68 68" fill="none" xmlns="http://www.w3.org/2000/svg">
<g clip-path="url(#clip0_803_144)">
<path d="M36.1202 44.8957L44.8973 36.1186C45.4941 35.4764 45.8257 34.6322 45.8257 33.7555C45.8257 32.8789 45.4941 32.0347 44.8973 31.3925L36.036 22.5312C35.7346 22.2272 35.372 21.9908 34.9722 21.8378C34.5725 21.6847 34.1448 21.6185 33.7174 21.6434C32.8457 21.6486 32.0112 21.9979 31.3957 22.6153C30.799 23.2575 30.4673 24.1017 30.4673 24.9783C30.4673 25.855 30.799 26.6992 31.3957 27.3414L34.4336 30.3793H23.5459C23.1061 30.3657 22.6683 30.4449 22.2612 30.6119C21.854 30.7788 21.4866 31.0296 21.1829 31.348C20.8766 31.668 20.6368 32.0455 20.4774 32.4588C20.3179 32.872 20.2419 33.3128 20.2539 33.7555C20.2464 34.201 20.3286 34.6434 20.4956 35.0564C20.6626 35.4694 20.911 35.8446 21.226 36.1596C21.541 36.4746 21.9162 36.723 22.3292 36.8901C22.7423 37.0571 23.1847 37.1393 23.6301 37.1317H34.4289L31.3068 40.2539C31.0024 40.5556 30.7658 40.9187 30.6127 41.3191C30.4597 41.7194 30.3936 42.1477 30.419 42.5756C30.4247 43.4463 30.774 44.2796 31.3909 44.8942C32.0331 45.4909 32.8773 45.8225 33.754 45.8225C34.6306 45.8225 35.4748 45.4909 36.117 44.8942L36.1202 44.8957ZM33.7571 67.5128C29.2325 67.5422 24.7505 66.6367 20.5922 64.8528C12.5071 61.4402 6.07317 55.0069 2.65983 46.9221C0.876012 42.7638 -0.0295753 38.2818 -0.000160226 33.7571C-0.0295753 29.2324 0.876012 24.7505 2.65983 20.5921C6.07414 12.5069 12.5075 6.07238 20.5922 2.65664C24.751 0.874916 29.2328 -0.0295451 33.7571 -0.000176823C38.2815 -0.0295451 42.7633 0.874916 46.9221 2.65664C55.0061 6.07272 61.4389 12.5072 64.8529 20.5921C66.6366 24.7505 67.5422 29.2324 67.5128 33.7571C67.5423 38.2818 66.6367 42.7638 64.8529 46.9221C61.4399 55.0066 55.0066 61.4399 46.9221 64.8528C42.7638 66.6366 38.2818 67.5422 33.7571 67.5128Z" fill="#383838"/>
</g>
<defs>
<clipPath id="clip0_803_144">
<rect width="67.513" height="67.513" fill="white"/>
</clipPath>
</defs>
</svg>
